<svg preserveAspectRatio="none" overflow="visible" style="display: block;" width="16" height="16" viewBox="0 0 16 16" fill="none" xmlns="http://www.w3.org/2000/svg">
<g id="CaretLeft">
<path id="Vector" d="M10.5331 12.4701C10.674 12.6109 10.7531 12.802 10.7531 13.0013C10.7531 13.2006 10.674 13.3917 10.5331 13.5326C10.3922 13.6734 10.2011 13.7526 10.0018 13.7526C9.80258 13.7526 9.61149 13.6734 9.47059 13.5326L4.47059 8.53255C4.40067 8.46287 4.34519 8.38008 4.30734 8.28891C4.26949 8.19775 4.25 8.10001 4.25 8.0013C4.25 7.90259 4.26949 7.80485 4.30734 7.71369C4.34519 7.62252 4.40067 7.53973 4.47059 7.47005L9.47059 2.47005C9.61149 2.32915 9.80258 2.25 10.0018 2.25C10.2011 2.25 10.3922 2.32915 10.5331 2.47005C10.674 2.61095 10.7531 2.80204 10.7531 3.0013C10.7531 3.20056 10.674 3.39165 10.5331 3.53255L6.06497 8.00068L10.5331 12.4701Z" fill="#160906" fill-opacity="0.5"/>
</g>
</svg>
